<mxfile host="app.diagrams.net" agent="Mozilla/5.0 (Windows NT 10.0; Win64; x64) AppleWebKit/537.36 (KHTML, like Gecko) Chrome/135.0.0.0 Safari/537.36" version="26.2.12">
  <diagram name="Página-1" id="NlycG4q43Eu0XKt2mFh_">
    <mxGraphModel dx="920" dy="489" grid="1" gridSize="10" guides="1" tooltips="1" connect="1" arrows="1" fold="1" page="1" pageScale="1" pageWidth="827" pageHeight="1169" math="0" shadow="0">
      <root>
        <mxCell id="0" />
        <mxCell id="1" parent="0" />
        <mxCell id="VesHS07837h71vuOPC_k-4" value="" style="edgeStyle=orthogonalEdgeStyle;rounded=0;orthogonalLoop=1;jettySize=auto;html=1;entryX=0.575;entryY=-0.009;entryDx=0;entryDy=0;entryPerimeter=0;" edge="1" parent="1" source="VesHS07837h71vuOPC_k-2" target="VesHS07837h71vuOPC_k-11">
          <mxGeometry relative="1" as="geometry">
            <mxPoint x="390" y="149.9999999999999" as="targetPoint" />
          </mxGeometry>
        </mxCell>
        <mxCell id="VesHS07837h71vuOPC_k-2" value="Inicio del programa" style="ellipse;whiteSpace=wrap;html=1;" vertex="1" parent="1">
          <mxGeometry x="340" y="20" width="120" height="80" as="geometry" />
        </mxCell>
        <mxCell id="VesHS07837h71vuOPC_k-6" value="" style="edgeStyle=orthogonalEdgeStyle;rounded=0;orthogonalLoop=1;jettySize=auto;html=1;exitX=0.5;exitY=1;exitDx=0;exitDy=0;" edge="1" parent="1" source="VesHS07837h71vuOPC_k-11" target="VesHS07837h71vuOPC_k-5">
          <mxGeometry relative="1" as="geometry">
            <mxPoint x="390" y="209.9999999999999" as="sourcePoint" />
          </mxGeometry>
        </mxCell>
        <mxCell id="VesHS07837h71vuOPC_k-15" style="edgeStyle=orthogonalEdgeStyle;rounded=0;orthogonalLoop=1;jettySize=auto;html=1;entryX=0.5;entryY=0;entryDx=0;entryDy=0;" edge="1" parent="1" source="VesHS07837h71vuOPC_k-5" target="VesHS07837h71vuOPC_k-13">
          <mxGeometry relative="1" as="geometry" />
        </mxCell>
        <mxCell id="VesHS07837h71vuOPC_k-16" style="edgeStyle=orthogonalEdgeStyle;rounded=0;orthogonalLoop=1;jettySize=auto;html=1;exitX=1;exitY=0.5;exitDx=0;exitDy=0;entryX=0.75;entryY=0;entryDx=0;entryDy=0;" edge="1" parent="1" source="VesHS07837h71vuOPC_k-5" target="VesHS07837h71vuOPC_k-14">
          <mxGeometry relative="1" as="geometry" />
        </mxCell>
        <mxCell id="VesHS07837h71vuOPC_k-5" value="¿mes &amp;lt;= 0 o mes &amp;gt; 12 o dia &amp;lt;=0 o dia &amp;gt; diasMes[mes]?" style="rhombus;whiteSpace=wrap;html=1;" vertex="1" parent="1">
          <mxGeometry x="232.5" y="260" width="295" height="120" as="geometry" />
        </mxCell>
        <mxCell id="VesHS07837h71vuOPC_k-7" value="Final" style="ellipse;whiteSpace=wrap;html=1;" vertex="1" parent="1">
          <mxGeometry x="293" y="590" width="120" height="80" as="geometry" />
        </mxCell>
        <mxCell id="VesHS07837h71vuOPC_k-11" value="scanf(&quot;%i %i&quot;, &amp;amp;mes, &amp;amp;dia);" style="shape=parallelogram;perimeter=parallelogramPerimeter;whiteSpace=wrap;html=1;fixedSize=1;" vertex="1" parent="1">
          <mxGeometry x="290" y="160" width="180" height="60" as="geometry" />
        </mxCell>
        <mxCell id="VesHS07837h71vuOPC_k-19" style="edgeStyle=orthogonalEdgeStyle;rounded=0;orthogonalLoop=1;jettySize=auto;html=1;entryX=0;entryY=0.5;entryDx=0;entryDy=0;" edge="1" parent="1" source="VesHS07837h71vuOPC_k-13" target="VesHS07837h71vuOPC_k-7">
          <mxGeometry relative="1" as="geometry">
            <Array as="points">
              <mxPoint x="125" y="630" />
            </Array>
          </mxGeometry>
        </mxCell>
        <mxCell id="VesHS07837h71vuOPC_k-13" value="printf(&quot;Mes o dia invalido&quot;)" style="shape=parallelogram;perimeter=parallelogramPerimeter;whiteSpace=wrap;html=1;fixedSize=1;" vertex="1" parent="1">
          <mxGeometry x="40" y="360" width="170" height="60" as="geometry" />
        </mxCell>
        <mxCell id="VesHS07837h71vuOPC_k-20" style="edgeStyle=orthogonalEdgeStyle;rounded=0;orthogonalLoop=1;jettySize=auto;html=1;entryX=1;entryY=0.5;entryDx=0;entryDy=0;" edge="1" parent="1" source="VesHS07837h71vuOPC_k-14" target="VesHS07837h71vuOPC_k-7">
          <mxGeometry relative="1" as="geometry">
            <Array as="points">
              <mxPoint x="630" y="630" />
            </Array>
          </mxGeometry>
        </mxCell>
        <mxCell id="VesHS07837h71vuOPC_k-14" value="printf(&quot;%i de %s\n&quot;, dia, meses[mes]);" style="shape=parallelogram;perimeter=parallelogramPerimeter;whiteSpace=wrap;html=1;fixedSize=1;" vertex="1" parent="1">
          <mxGeometry x="501.25" y="360" width="238.75" height="60" as="geometry" />
        </mxCell>
        <mxCell id="VesHS07837h71vuOPC_k-17" value="si" style="text;html=1;align=center;verticalAlign=middle;resizable=0;points=[];autosize=1;strokeColor=none;fillColor=none;" vertex="1" parent="1">
          <mxGeometry x="165" y="290" width="30" height="30" as="geometry" />
        </mxCell>
        <mxCell id="VesHS07837h71vuOPC_k-18" value="no" style="text;html=1;align=center;verticalAlign=middle;resizable=0;points=[];autosize=1;strokeColor=none;fillColor=none;" vertex="1" parent="1">
          <mxGeometry x="560" y="290" width="40" height="30" as="geometry" />
        </mxCell>
        <mxCell id="VesHS07837h71vuOPC_k-21" value="if" style="text;html=1;align=center;verticalAlign=middle;resizable=0;points=[];autosize=1;strokeColor=none;fillColor=none;" vertex="1" parent="1">
          <mxGeometry x="410" y="250" width="30" height="30" as="geometry" />
        </mxCell>
        <mxCell id="VesHS07837h71vuOPC_k-23" value="Ejercicio 1" style="text;html=1;align=center;verticalAlign=middle;resizable=0;points=[];autosize=1;strokeColor=none;fillColor=none;" vertex="1" parent="1">
          <mxGeometry x="40" y="60" width="80" height="30" as="geometry" />
        </mxCell>
      </root>
    </mxGraphModel>
  </diagram>
</mxfile>
